<?xml version="1.0" standalone="no"?>
<!DOCTYPE svg PUBLIC "-//W3C//DTD SVG 20010904//EN"
 "http://www.w3.org/TR/2001/REC-SVG-20010904/DTD/svg10.dtd">
<svg version="1.0" xmlns="http://www.w3.org/2000/svg"
 width="900.000000pt" height="492.000000pt" viewBox="0 0 900.000000 492.000000"
 preserveAspectRatio="xMidYMid meet">

<g transform="translate(0.000000,492.000000) scale(0.100000,-0.100000)"
fill="#000000" stroke="none">
<path d="M0 3135 l0 -1785 405 0 405 0 3 253 2 252 3 -252 2 -253 235 0 235 0
1 28 c1 15 1 43 0 64 -2 27 5 47 28 78 16 23 28 47 25 55 -5 12 21 75 31 75 2
0 -1 -14 -7 -32 -9 -24 -8 -33 1 -36 7 -2 -2 -22 -24 -54 -20 -27 -36 -57 -35
-66 3 -51 5 -182 2 -182 -2 0 -8 14 -14 31 l-10 30 -232 -3 -231 -3 4 -140 c2
-77 5 -142 7 -144 2 -2 8 7 13 20 l10 24 2 -25 c1 -21 3 -19 9 10 4 19 8 27 9
18 1 -20 -12 -18 241 -23 77 -1 142 -4 145 -5 15 -8 31 -4 42 10 7 8 13 11 13
5 0 -5 5 -3 10 5 6 10 10 11 10 3 0 -26 19 -12 26 19 l7 33 29 -63 c15 -35 25
-69 22 -75 -4 -7 -3 -9 1 -4 10 9 75 -155 75 -189 0 -19 -5 -24 -27 -25 -16
-1 -353 0 -750 1 l-723 1 0 -395 0 -396 4495 0 4495 0 0 395 0 395 -712 -1
c-392 0 -723 0 -735 0 -19 1 -23 7 -23 32 0 39 29 171 41 184 5 5 9 19 9 32 0
13 5 23 11 23 6 0 8 -9 4 -22 -5 -20 -5 -21 5 -5 7 11 8 23 2 30 -14 19 -23
49 -12 42 6 -3 10 -12 10 -18 0 -9 69 -12 278 -11 152 1 283 2 290 3 9 1 13
90 14 404 2 323 3 349 5 135 l3 -268 402 0 c221 0 399 -2 397 -5 -3 -2 -181
-5 -397 -5 -238 -1 -394 -5 -397 -10 -4 -6 -3 -64 1 -131 4 -71 10 -115 15
-107 6 9 9 1 10 -22 1 -28 3 -30 7 -10 4 23 5 24 13 5 5 -13 8 -15 8 -5 1 13
45 15 354 14 235 0 357 3 366 10 11 8 13 8 7 -1 -4 -7 -3 -13 3 -13 6 0 12
-34 14 -77 1 -43 4 823 5 1925 l2 2002 -4495 0 -4495 0 0 -1785z m8783 1258
c-13 -2 -35 -2 -50 0 -16 2 -5 4 22 4 28 0 40 -2 28 -4z m100 0 c-7 -2 -21 -2
-30 0 -10 3 -4 5 12 5 17 0 24 -2 18 -5z m-8066 -205 c-3 -8 -6 -5 -6 6 -1 11
2 17 5 13 3 -3 4 -12 1 -19z m76 5 c-7 -2 -19 -2 -25 0 -7 3 -2 5 12 5 14 0
19 -2 13 -5z m-283 -317 c8 -2 -34 -3 -95 -3 -80 0 -95 2 -55 6 52 6 116 4
150 -3z m178 7 c-10 -2 -26 -2 -35 0 -10 3 -2 5 17 5 19 0 27 -2 18 -5z m127
2 c-26 -9 -105 -12 -105 -4 0 5 26 9 58 8 31 0 53 -2 47 -4z m7688 -2 c3 -5
-42 -8 -99 -8 -57 0 -104 3 -104 8 0 4 45 7 99 7 55 0 102 -3 104 -7z m-7780
-98 c-7 -21 -13 -19 -13 6 0 11 4 18 10 14 5 -3 7 -12 3 -20z m413 3 c4 -6 -3
-19 -16 -30 -20 -16 -20 -18 -4 -19 18 0 17 -1 -1 -9 -11 -5 -49 -9 -84 -9
-45 -1 -70 -6 -83 -18 -18 -16 -24 -9 -19 20 1 5 -8 11 -19 14 -19 5 -19 6 6
26 20 15 23 22 12 28 -7 5 32 9 94 9 70 0 109 -4 114 -12z m209 -18 c11 -17
-5 -32 -21 -19 -7 6 -11 15 -8 20 7 12 21 11 29 -1z m-628 -42 c-3 -8 -6 -5
-6 6 -1 11 2 17 5 13 3 -3 4 -12 1 -19z m13 -33 c0 -8 -7 -15 -15 -15 -16 0
-20 12 -8 23 11 12 23 8 23 -8z m-305 -10 c6 -2 -15 -4 -45 -4 -30 0 -61 3
-68 8 -12 7 90 4 113 -4z m78 3 c-2 -5 -17 -8 -34 -8 -16 0 -29 3 -29 8 0 4
15 7 34 7 19 0 32 -3 29 -7z m-310 -5 c3 -5 -39 -8 -94 -8 -54 0 -99 3 -99 8
0 4 42 7 94 7 52 0 97 -3 99 -7z m7915 2 c-9 -9 -117 -12 -112 -3 3 4 30 8 61
8 31 0 54 -2 51 -5z m82 -5 c11 -7 5 -8 -20 -4 -43 8 -51 14 -19 14 13 0 31
-5 39 -10z m-7082 -67 l-1 -58 -6 45 c-6 42 -4 70 5 70 2 0 3 -26 2 -57z
m7399 35 c-3 -8 -6 -5 -6 6 -1 11 2 17 5 13 3 -3 4 -12 1 -19z m-7486 -108
c43 0 79 -4 79 -9 0 -5 7 -17 16 -26 9 -9 15 -18 13 -19 -5 -5 -103 -10 -156
-8 l-43 2 2 83 c1 61 3 68 5 30 l4 -53 80 0z m404 -105 c3 -77 6 -189 7 -250
l3 -110 -45 -5 -45 -5 -2 -45 c-1 -25 -2 -69 -2 -99 -1 -88 -11 -52 -14 50
l-2 94 -47 3 -48 3 0 239 c0 131 3 246 6 255 5 13 21 15 95 13 l89 -3 5 -140z
m7082 68 c-2 -16 -4 -3 -4 27 0 30 2 43 4 28 2 -16 2 -40 0 -55z m-5557 -30
c-92 -7 -190 -7 -190 -1 0 9 101 14 170 8 41 -3 46 -5 20 -7z m4945 2 c6 -1
-41 -4 -103 -6 -61 -2 -112 -1 -112 3 0 12 176 15 215 3z m920 6 c-12 -11
-105 -19 -105 -9 0 4 21 9 48 11 26 2 51 4 57 5 6 1 6 -1 0 -7z m-137 -8 c-16
-2 -40 -2 -55 0 -16 2 -3 4 27 4 30 0 43 -2 28 -4z m-5490 -94 c4 -1 24 -3 46
-5 41 -3 59 -14 37 -22 -9 -3 -10 -6 -2 -11 8 -5 11 -117 11 -391 0 -211 -2
-386 -5 -389 -3 -3 -22 -6 -43 -7 -20 -1 -41 -3 -45 -3 -5 -1 -5 -5 -2 -11 3
-5 -1 -10 -10 -10 -9 0 -13 5 -10 10 6 9 -8 15 -29 11 -5 -1 -22 1 -39 5 l-30
6 8 382 c5 270 10 383 18 388 8 5 5 8 -8 9 -11 1 -2 5 20 9 l40 7 -40 3 -40 3
50 6 50 6 5 50 4 50 4 -47 c2 -27 6 -48 10 -49z m5320 -4 c-4 -4 -86 -7 -162
-6 -33 1 -57 4 -53 7 3 4 51 6 107 5 l100 -2 2 38 1 38 4 -39 c3 -21 3 -39 1
-41z m-7481 18 c-3 -10 -5 -4 -5 12 0 17 2 24 5 18 2 -7 2 -21 0 -30z m-811
-35 c-3 -18 -5 -37 -6 -43 -1 -5 -6 4 -11 20 -11 37 -1 97 12 73 5 -9 7 -31 5
-50z m7476 -236 c2 -96 -1 -152 -7 -152 -7 0 -8 79 -5 227 4 229 8 210 12 -75z
m-4712 164 l0 -124 -55 -4 c-30 -1 -80 -1 -110 0 -47 3 -55 7 -55 24 0 15 3
18 13 10 7 -6 53 -12 102 -13 l90 -2 3 116 c1 65 5 117 7 117 3 0 5 -56 5
-124z m-2973 47 c-2 -16 -4 -5 -4 22 0 28 2 40 4 28 2 -13 2 -35 0 -50z m7990
-70 c-2 -27 -3 -5 -3 47 0 52 1 74 3 48 2 -27 2 -69 0 -95z m203 7 l0 -110
-51 0 -51 0 4 -95 c3 -90 2 -95 -17 -94 -11 0 -14 3 -7 6 8 3 12 32 12 94 l0
89 -50 0 c-39 0 -50 4 -50 16 0 9 5 12 11 8 7 -4 31 -7 55 -6 24 0 64 1 89 1
l45 1 0 100 c0 55 2 100 5 100 3 0 5 -49 5 -110z m-5633 68 c-3 -7 -5 -2 -5
12 0 14 2 19 5 13 2 -7 2 -19 0 -25z m4300 -80 c-2 -24 -4 -7 -4 37 0 44 2 63
4 43 2 -21 2 -57 0 -80z m1540 40 c-2 -13 -4 -5 -4 17 -1 22 1 32 4 23 2 -10
2 -28 0 -40z m-6760 -50 c-2 -18 -4 -4 -4 32 0 36 2 50 4 33 2 -18 2 -48 0
-65z m6248 -276 c-10 -10 -10 3 -5 183 l5 180 3 -179 c1 -98 0 -181 -3 -184z
m-7888 306 c-3 -8 -6 -5 -6 6 -1 11 2 17 5 13 3 -3 4 -12 1 -19z m2663 -109
l0 -99 -51 0 -51 0 4 -50 c2 -29 -1 -50 -7 -50 -6 0 -9 21 -7 50 l4 50 -58 0
c-31 0 -55 3 -51 6 3 4 52 6 107 5 l101 -2 -3 88 -3 88 -98 0 c-53 0 -97 3
-97 7 0 9 88 14 158 10 l52 -4 0 -99z m97 64 c-3 -10 -5 -4 -5 12 0 17 2 24 5
18 2 -7 2 -21 0 -30z m-2755 -67 c-4 -85 -4 -86 19 -87 36 -2 89 -2 131 -1
l37 2 4 88 3 87 0 -93 c-1 -52 3 -94 9 -96 6 -3 -16 -5 -48 -5 l-59 -1 2 -42
c3 -84 0 -261 -5 -256 -3 2 -5 71 -6 151 l0 147 -48 0 -48 0 -6 85 c-6 84 -2
119 12 110 4 -2 5 -42 3 -89z m2266 13 c9 -1 32 0 50 1 29 1 32 -1 33 -27 0
-15 2 -46 5 -68 2 -22 4 -47 4 -55 0 -8 0 -129 1 -267 0 -203 -2 -253 -13
-253 -10 0 -13 52 -11 266 2 159 -1 274 -7 284 -7 13 -7 21 0 25 5 3 10 22 10
41 l0 34 -100 -2 c-73 -2 -101 0 -105 10 -3 8 8 12 36 12 47 0 68 17 71 57 1
17 3 11 5 -14 3 -32 9 -43 21 -44z m4950 -111 l47 -3 4 -200 c1 -110 7 -203
12 -206 5 -3 -19 -5 -53 -5 -82 0 -131 -17 -185 -67 -50 -46 -56 -41 -13 14
l31 38 -1 168 c0 92 -1 189 0 216 l0 47 50 0 50 0 2 98 2 97 3 -97 4 -97 47
-3z m-4761 90 c-2 -18 -4 -6 -4 27 0 33 2 48 4 33 2 -15 2 -42 0 -60z m5023
-40 c-1 -68 -1 -129 -1 -135 1 -9 17 -13 46 -13 36 0 45 -3 45 -17 0 -10 1
-103 3 -208 l2 -190 -30 -3 c-23 -2 -43 6 -75 31 -25 19 -58 38 -75 44 -18 6
-30 16 -29 26 1 10 2 85 3 167 l1 150 40 0 c54 0 60 16 60 154 0 64 2 116 6
116 3 0 5 -55 4 -122z m-565 52 l46 0 -3 -152 -3 -153 -47 -3 -48 -3 -2 -152
-2 -152 -3 153 -4 152 -49 0 -50 0 0 155 0 155 50 0 c45 0 50 2 51 23 l0 22 9
-22 c8 -19 17 -23 55 -23z m-5184 -91 c0 -49 1 -117 2 -151 l1 -63 -51 -3 -50
-3 4 -52 c3 -36 1 -48 -5 -38 -6 8 -8 20 -5 28 3 7 2 24 -1 38 -6 22 -11 25
-56 25 l-50 0 0 155 0 154 58 3 c31 2 78 1 105 0 l47 -4 1 -89z m4921 87 c4
-6 8 -147 8 -313 l0 -303 -50 0 -50 0 0 -95 c0 -57 -4 -95 -10 -95 -6 0 -10
38 -10 95 l0 95 -55 0 -55 0 0 205 c0 130 4 205 10 205 6 0 10 -71 10 -194 0
-146 3 -195 13 -198 15 -6 165 -4 171 2 2 3 6 136 7 295 l4 290 -98 3 -99 3 4
-96 c2 -66 0 -95 -8 -95 -17 0 -19 191 -2 201 19 12 202 7 210 -5z m-405 -128
c-2 -24 -4 -5 -4 42 0 47 2 66 4 43 2 -24 2 -62 0 -85z m-4095 -280 c-1 -120
-6 -218 -10 -218 -6 0 -6 217 0 515 l2 80 5 -80 c3 -44 5 -178 3 -297z m718
348 c0 -14 -4 -27 -8 -30 -5 -3 -9 8 -9 24 0 17 4 30 9 30 4 0 8 -11 8 -24z
m3071 -145 l0 -91 49 0 c28 0 50 -3 50 -7 0 -5 -44 -8 -97 -8 l-98 0 -1 -50
c-1 -27 -2 -101 -3 -163 0 -74 -5 -111 -11 -107 -6 4 -10 53 -9 122 0 77 -3
118 -11 123 -8 5 -6 11 5 20 8 7 15 25 15 41 0 26 3 28 48 31 l47 3 2 50 c1
28 2 70 2 94 1 24 4 42 7 39 3 -3 5 -47 5 -97z m-1144 27 c-3 -7 -5 -2 -5 12
0 14 2 19 5 13 2 -7 2 -19 0 -25z m-2367 -11 c10 -4 8 -6 -6 -6 -12 -1 -25 6
-28 15 -5 13 -3 14 6 7 7 -6 20 -13 28 -16z m2320 3 c-14 -4 -47 -8 -75 -7
l-50 0 50 7 c28 4 61 7 75 7 l25 1 -25 -8z m669 -5 c2 -3 -19 -5 -47 -5 -28 0
-53 4 -57 9 -5 10 94 5 104 -4z m931 -266 l0 -271 -47 4 -48 3 0 -40 c0 -38 1
-40 45 -52 79 -23 161 -33 181 -22 11 5 19 6 19 1 0 -5 55 -10 123 -11 75 -1
146 -8 185 -18 81 -21 74 -28 -9 -8 -44 10 -119 15 -244 15 l-180 0 -149 51
c-143 48 -235 88 -208 89 19 0 17 169 -3 197 -13 19 -13 22 0 27 12 4 15 25
16 88 1 104 6 91 12 -26 3 -73 7 -91 23 -104 16 -12 16 -14 2 -9 -14 5 -18 1
-19 -21 0 -15 -2 -55 -3 -89 -2 -34 0 -66 3 -71 6 -8 156 -62 174 -62 5 0 7
15 5 33 -3 31 -5 32 -50 35 l-48 3 0 56 c0 38 -5 62 -17 75 -15 17 -15 18 0
18 15 0 17 18 17 170 0 96 4 170 9 170 5 0 10 -79 11 -182 0 -117 5 -185 11
-189 8 -5 8 -9 0 -13 -6 -4 -11 -27 -11 -52 0 -43 1 -44 34 -44 18 0 60 3 93
6 l59 6 0 242 -1 241 -103 0 c-75 0 -102 3 -102 13 0 9 29 12 110 12 l110 0 0
-271z m-4400 211 c0 -22 -4 -40 -10 -40 -5 0 -10 18 -10 40 0 22 5 40 10 40 6
0 10 -18 10 -40z m610 -5 c0 -25 -3 -45 -8 -45 -4 0 -6 20 -4 45 2 25 6 45 8
45 2 0 4 -20 4 -45z m972 -153 l47 -3 3 -127 c3 -125 3 -127 26 -125 29 4 28
-5 -3 -17 -22 -9 -25 -15 -25 -65 0 -51 2 -55 28 -62 24 -6 70 -7 140 -4 21 1
22 5 22 90 0 63 -4 91 -12 93 -8 3 -4 9 10 17 l22 12 0 -106 c0 -77 3 -105 13
-106 6 -1 29 -2 50 -2 20 0 37 -5 37 -11 0 -11 63 -66 90 -78 13 -6 13 -7 -1
-7 -9 -1 -35 12 -57 29 -36 26 -47 29 -87 23 -26 -3 -70 -1 -98 5 -29 6 -79
16 -112 22 -51 9 -305 120 -305 133 0 2 11 2 25 -1 l25 -4 0 145 0 146 48 3
47 3 5 100 4 100 6 -100 5 -100 47 -3z m4252 110 l98 -3 -6 46 c-5 29 -4 45 3
45 6 0 11 -21 11 -50 l0 -50 -37 -1 c-188 -8 -183 -9 -181 55 l1 51 6 -45 6
-45 99 -3z m-2164 13 c0 -8 -2 -15 -4 -15 -2 0 -6 7 -10 15 -3 8 -1 15 4 15 6
0 10 -7 10 -15z m-3583 -195 l3 -175 -73 -33 c-39 -18 -87 -32 -104 -32 l-33
0 0 204 c0 154 3 205 12 208 7 3 53 4 103 4 l90 -1 2 -175z m5753 110 c0 -16
-4 -32 -10 -35 -6 -4 -10 10 -10 35 0 25 4 39 10 35 6 -3 10 -19 10 -35z
m-2460 -85 l0 -45 50 0 c45 0 50 -2 50 -22 0 -22 4 -23 90 -25 74 -1 90 1 90
14 0 8 6 13 13 10 6 -2 11 -9 10 -15 -2 -6 16 -16 38 -22 23 -6 39 -13 37 -15
-2 -3 -19 0 -37 5 -74 21 -254 11 -298 -16 -12 -8 -41 -14 -63 -14 -23 0 -51
-5 -62 -11 -11 -6 -48 -13 -80 -14 -33 -2 -63 -6 -66 -9 -9 -9 -67 -7 -77 3
-12 11 -63 17 -235 30 -69 5 -145 14 -170 21 -52 13 -120 51 -141 76 -8 10 2
6 21 -8 59 -44 147 -68 252 -68 51 -1 118 -7 149 -14 31 -8 68 -12 82 -9 21 4
24 10 23 44 -1 21 2 39 6 39 4 0 8 -17 8 -39 0 -35 3 -39 29 -43 16 -2 39 -1
51 4 16 6 26 4 34 -7 8 -11 20 -14 44 -9 31 6 32 8 32 60 l0 54 50 0 50 0 0
45 c0 25 5 45 10 45 6 0 10 -20 10 -45z m-1348 -67 c-9 -9 -12 -7 -12 12 0 19
3 21 12 12 9 -9 9 -15 0 -24z m-85 -33 c0 -8 -4 -12 -9 -9 -5 3 -6 10 -3 15 9
13 12 11 12 -6z m-1042 -4 c3 -5 2 -12 -3 -15 -5 -3 -9 1 -9 9 0 17 3 19 12 6z
m4411 -147 c-3 -9 -22 -14 -51 -14 l-45 0 0 -45 c0 -25 -5 -45 -11 -45 -6 0
-9 17 -7 43 l3 42 -48 3 -47 3 0 48 0 48 88 18 c48 9 94 21 102 25 12 7 16 -1
18 -52 2 -34 1 -67 -2 -74z m172 104 c95 -59 96 -250 1 -320 -58 -43 -61 -41
-12 9 30 29 53 64 61 89 14 47 15 109 2 139 -8 19 -9 19 -9 -2 -2 -40 -21 -24
-21 16 0 43 -11 55 -50 57 -45 2 -50 4 -50 19 0 22 37 19 78 -7z m1307 12 c-3
-5 -12 -10 -18 -10 -7 0 -6 4 3 10 19 12 23 12 15 0z m-2480 -94 c6 -4 1 -4
-10 2 -11 6 -29 21 -40 34 -19 22 -19 22 10 -2 17 -14 35 -29 40 -34z m2320
-6 c3 -6 -1 -7 -9 -4 -18 7 -21 14 -7 14 6 0 13 -4 16 -10z m-4143 -21 c27 -7
73 -9 123 -5 65 5 76 4 60 -6 -11 -6 -53 -12 -95 -12 -57 0 -86 5 -120 22 -25
12 -37 20 -28 18 9 -3 36 -10 60 -17z m4058 -39 c-8 -6 -24 -15 -35 -21 -16
-8 -15 -6 4 10 13 12 28 21 35 21 6 0 4 -5 -4 -10z m-2110 -10 c8 -5 12 -11
10 -14 -3 -2 -14 2 -24 10 -22 15 -10 19 14 4z m84 -59 c-2 -2 -10 2 -19 9
-12 10 -15 10 -15 -1 -1 -10 -5 -8 -15 5 -23 30 -7 39 24 14 16 -13 27 -25 25
-27z m1911 1 c-3 -3 -11 0 -18 7 -9 10 -8 11 6 5 10 -3 15 -9 12 -12z m-70
-40 c-3 -3 -11 0 -18 7 -9 10 -8 11 6 5 10 -3 15 -9 12 -12z m-3731 -194 c-3
-101 -10 -187 -15 -193 -5 -5 -9 -16 -9 -24 0 -23 50 -90 79 -107 l26 -14 -27
6 c-24 5 -28 3 -28 -15 0 -20 5 -21 91 -21 74 0 90 3 86 14 -4 10 0 12 14 9
19 -5 27 -43 9 -43 -6 0 -10 -70 -10 -190 l0 -190 154 0 c114 0 156 3 160 13
3 6 3 -8 -1 -33 -16 -95 -1 -149 56 -214 57 -65 138 -143 171 -166 19 -13 37
-25 40 -27 2 -2 -1 -7 -7 -11 -6 -4 -22 -34 -35 -67 l-24 -60 -542 -3 -543 -2
-39 40 c-22 23 -40 44 -40 49 0 4 -11 13 -24 19 -45 20 -167 145 -193 197 -14
27 -43 98 -64 158 -22 59 -49 127 -61 150 -19 37 -53 206 -43 215 5 5 45 -126
45 -146 0 -8 10 -37 23 -63 l22 -48 58 -1 57 0 0 103 0 104 38 16 c37 16 84
22 155 19 l37 -2 0 -80 0 -80 -32 -1 c-18 -1 -39 -1 -45 0 -9 1 -13 -12 -13
-39 l0 -40 80 0 80 0 1 103 c1 179 3 191 22 195 15 3 17 -10 17 -148 l0 -151
83 3 82 3 3 238 3 237 -75 0 c-42 0 -76 -4 -76 -8 0 -5 14 -21 30 -37 17 -16
30 -38 30 -49 -1 -17 -3 -15 -14 9 -8 17 -23 35 -34 42 -37 22 -74 103 -76
169 -3 60 -4 63 -59 118 -53 52 -57 59 -57 104 0 28 -7 58 -17 72 l-17 25 22
-19 c17 -14 22 -30 22 -65 0 -42 5 -51 60 -111 62 -68 64 -72 61 -132 -2 -20
5 -50 14 -68 14 -26 21 -31 48 -28 31 3 32 4 35 56 4 66 22 59 22 -9 l0 -49
55 0 55 0 2 -247 3 -248 138 -3 137 -3 0 191 0 190 -35 0 c-35 0 -35 0 -35
-45 0 -33 -4 -45 -14 -45 -10 0 -16 14 -18 43 l-3 42 -47 3 -48 3 0 46 c0 29
-7 55 -21 74 -19 26 -19 34 -10 105 6 41 11 112 11 157 0 84 9 187 17 187 2 0
1 -82 -3 -182z m3531 112 c3 -5 -1 -10 -9 -10 -9 0 -16 5 -16 10 0 6 4 10 9
10 6 0 13 -4 16 -10z m-35 -14 c0 -8 -4 -17 -9 -20 -10 -7 -23 19 -14 28 11
11 23 6 23 -8z m-63 -32 c-3 -3 -12 -4 -19 -1 -8 3 -5 6 6 6 11 1 17 -2 13 -5z
m-32 -24 c-11 -5 -37 -9 -57 -9 -23 -1 -38 -6 -39 -13 0 -10 -2 -10 -6 0 -2 6
-14 13 -26 13 -42 2 36 17 93 17 39 0 49 -2 35 -8z m-135 -30 c0 -12 -8 -12
-35 0 -18 8 -17 9 8 9 15 1 27 -3 27 -9z m-93 -27 c-9 -9 -107 -19 -107 -12 0
5 18 9 41 9 22 0 38 4 35 9 -4 5 3 7 14 4 12 -3 19 -7 17 -10z m-182 -19 c48
-19 -61 -32 -115 -14 -16 6 0 7 45 4 49 -3 64 -1 50 5 -22 11 -6 15 20 5z m65
2 c0 -2 -9 -6 -20 -9 -11 -3 -20 -1 -20 4 0 5 9 9 20 9 11 0 20 -2 20 -4z
m-318 -18 c7 7 16 12 21 12 5 0 2 -6 -5 -13 -7 -7 -33 -13 -57 -14 -42 0 -43
0 -20 12 17 10 28 10 37 3 9 -8 16 -8 24 0z m61 -15 c-7 -2 -19 -2 -25 0 -7 3
-2 5 12 5 14 0 19 -2 13 -5z m684 -80 c-3 -10 -5 -2 -5 17 0 19 2 27 5 18 2
-10 2 -26 0 -35z m-803 -165 c26 -109 30 -186 16 -292 -7 -52 -9 -111 -6 -130
l7 -36 386 0 c213 0 384 -2 382 -5 -3 -2 -172 -5 -376 -5 -204 -1 -373 -4
-376 -7 -3 -3 5 -31 19 -62 13 -31 17 -47 9 -37 -8 11 -25 45 -37 75 -21 52
-23 69 -20 236 2 149 -1 193 -16 258 -11 42 -16 77 -13 77 4 0 15 -33 25 -72z
m-2165 -12 c22 -14 43 -36 47 -48 11 -34 7 -221 -6 -301 -7 -37 -13 -67 -15
-65 -2 2 2 75 8 163 12 188 8 202 -66 251 -26 17 -51 34 -55 38 -13 14 47 -13
87 -38z m-336 -13 c-7 -2 -19 -2 -25 0 -7 3 -2 5 12 5 14 0 19 -2 13 -5z
m-383 -82 c0 -5 -7 -12 -16 -15 -14 -5 -15 -4 -4 9 14 17 20 19 20 6z m1887
-326 c-43 -7 -81 -16 -85 -19 -3 -3 70 -6 163 -6 93 0 166 -2 164 -5 -3 -2
-19 -5 -37 -7 l-32 -2 1 -131 c0 -71 3 -124 6 -117 5 13 83 17 83 5 0 -14 254
-13 262 0 6 9 8 9 8 0 0 -16 92 -11 98 6 5 16 22 14 22 -4 0 -8 4 -15 9 -15 5
0 8 8 6 18 -1 9 0 12 2 5 2 -7 10 -10 18 -7 7 3 16 1 20 -5 4 -7 0 -8 -11 -4
-14 5 -16 3 -11 -11 4 -10 7 -23 7 -29 1 -7 7 -1 14 13 12 21 12 29 0 53 -11
20 -20 26 -33 22 -15 -4 -24 4 -41 40 -12 25 -25 45 -30 45 -4 0 -18 19 -30
43 -40 77 -41 78 -159 76 -152 -2 -167 4 -26 11 132 6 146 2 199 -54 16 -17
40 -57 53 -88 17 -37 30 -55 38 -51 14 5 55 -36 67 -67 7 -20 -72 -195 -97
-214 -8 -6 -21 -28 -30 -48 -10 -25 -23 -39 -38 -42 -12 -2 -290 -3 -617 -3
l-595 2 -8 54 c-14 87 28 222 79 254 7 4 15 20 19 36 7 35 31 48 38 21 5 -18
47 -25 47 -8 0 4 12 3 26 -2 28 -11 542 -33 556 -24 4 3 8 -4 8 -15 0 -12 5
-21 10 -21 6 0 10 50 10 129 l0 129 -135 0 c-123 0 -139 -3 -177 -24 -24 -13
-57 -31 -74 -39 -17 -9 -40 -24 -50 -33 -15 -14 -39 -17 -126 -17 -139 0 -137
17 3 28 100 7 108 10 214 64 124 63 149 71 220 71 46 0 43 -1 -28 -13z m173
-6 c0 -5 -4 -9 -10 -9 -5 0 -10 7 -10 16 0 8 5 12 10 9 6 -3 10 -10 10 -16z
m-1010 -166 c0 -9 -13 -11 -45 -9 -25 2 -48 6 -51 9 -4 3 15 4 40 2 50 -4 51
-4 35 28 -10 21 -10 21 5 3 9 -11 16 -26 16 -33z m-2124 -5 c-18 -26 -20 -38
-7 -38 5 0 13 10 16 21 4 12 10 17 14 12 9 -15 51 -26 51 -14 0 5 -8 12 -17
14 -10 2 -2 4 17 3 27 -1 45 -11 80 -46 25 -24 48 -45 52 -45 7 0 51 -42 104
-97 17 -18 35 -45 41 -59 14 -32 71 -99 85 -99 12 0 68 -52 68 -62 0 -5 -113
-8 -250 -8 -196 0 -258 3 -285 14 -19 8 -35 20 -35 25 0 6 -15 13 -34 16 -25
5 -42 18 -65 51 -28 39 -32 51 -32 111 0 85 1 91 31 131 25 33 93 75 105 64 3
-3 -8 -11 -25 -18 -16 -7 -30 -18 -30 -24 0 -16 32 -12 46 8 12 15 15 15 24 2
9 -13 14 -7 11 13 0 4 3 7 8 7 5 0 13 9 16 20 3 11 11 20 16 20 6 0 3 -10 -5
-22z m-643 5 c-7 -2 -19 -2 -25 0 -7 3 -2 5 12 5 14 0 19 -2 13 -5z m3111 -8
c3 -8 1 -15 -4 -15 -6 0 -10 7 -10 15 0 8 2 15 4 15 2 0 6 -7 10 -15z m1590
-1 c5 -14 4 -15 -9 -4 -17 14 -19 20 -6 20 5 0 12 -7 15 -16z m-4769 -4 c-11
-5 -27 -9 -35 -9 -13 -1 -13 0 0 9 8 5 24 9 35 9 l20 0 -20 -9z m135 0 c0 -5
-4 -10 -10 -10 -5 0 -10 5 -10 10 0 6 5 10 10 10 6 0 10 -4 10 -10z m-215 -30
c3 -5 0 -8 -7 -5 -8 3 -20 -10 -30 -30 -15 -31 -16 -35 -2 -35 8 0 13 4 9 9
-3 5 0 13 7 17 17 11 192 4 196 -7 2 -5 8 -7 13 -3 5 3 9 -2 9 -11 0 -9 5 -13
11 -10 7 5 2 16 -13 32 -15 16 -18 24 -8 21 8 -2 18 -7 22 -13 4 -6 8 -2 8 8
0 9 8 17 17 17 12 0 14 -3 7 -10 -15 -15 -5 -113 12 -123 8 -4 14 -24 14 -42
0 -19 5 -35 10 -35 6 0 10 -9 10 -20 0 -11 14 -32 31 -47 17 -16 37 -40 45
-55 19 -37 9 -39 -170 -37 -83 0 -156 0 -161 -1 -22 -5 -34 1 -40 19 -4 13
-34 31 -83 51 -85 36 -92 42 -92 85 0 49 36 113 97 176 57 58 76 69 88 49z
m4897 -24 c37 -36 54 -66 37 -66 -5 0 -13 8 -16 18 -4 9 -9 19 -12 22 -17 15
-54 60 -49 60 3 0 21 -15 40 -34z m-5562 -26 c-10 -6 -11 -10 -2 -10 6 0 12
-7 12 -15 0 -9 9 -34 20 -56 12 -22 18 -45 14 -51 -4 -6 -3 -8 4 -4 5 3 32
-19 59 -49 56 -63 98 -135 80 -136 -80 -6 -219 -4 -223 3 -3 4 -22 17 -43 28
-29 14 -45 33 -65 75 -16 33 -24 65 -21 78 12 45 69 109 115 128 49 20 73 24
50 9z m4987 -16 c-3 -3 -12 -4 -19 -1 -8 3 -5 6 6 6 11 1 17 -2 13 -5z m381
-71 c34 -50 33 -59 -9 -111 -21 -28 -46 -66 -54 -86 -15 -35 -34 -53 -21 -20
4 9 2 22 -3 28 -9 11 30 152 40 142 2 -3 3 13 1 35 -5 48 17 53 46 12z"/>
<path d="M1063 3503 c9 -2 23 -2 30 0 6 3 -1 5 -18 5 -16 0 -22 -2 -12 -5z"/>
<path d="M1138 3503 c12 -2 32 -2 45 0 12 2 2 4 -23 4 -25 0 -35 -2 -22 -4z"/>
<path d="M1383 3562 c-29 -3 -33 -7 -33 -32 0 -16 4 -31 8 -34 5 -3 6 9 4 25
-4 29 -3 30 24 22 42 -11 121 -3 117 12 -3 9 -69 13 -120 7z"/>
<path d="M1351 3464 c0 -11 3 -14 6 -6 3 7 2 16 -1 19 -3 4 -6 -2 -5 -13z"/>
<path d="M3233 3333 c9 -2 23 -2 30 0 6 3 -1 5 -18 5 -16 0 -22 -2 -12 -5z"/>
<path d="M5330 2610 c0 -43 12 -50 42 -24 14 14 20 14 33 4 11 -9 22 -10 42
-1 16 6 40 15 55 20 19 7 26 15 22 26 -5 12 -25 15 -100 15 l-94 0 0 -40z"/>
<path d="M4096 1421 c-3 -4 -4 -22 -4 -40 1 -31 2 -32 42 -29 40 3 41 4 41 38
0 34 -2 35 -38 37 -20 0 -39 -2 -41 -6z"/>
<path d="M3992 1331 c-10 -6 -8 -19 12 -62 13 -30 28 -67 31 -82 4 -15 12 -30
18 -34 6 -4 8 0 4 10 -3 10 -3 25 1 35 5 13 8 11 13 -13 4 -18 7 6 8 63 l1 92
-37 0 c-21 0 -44 -4 -51 -9z"/>
<path d="M4097 1333 c-2 -5 -1 -39 2 -78 6 -64 8 -69 29 -68 12 0 25 2 30 3
17 4 273 1 281 -4 16 -10 30 19 37 77 l7 57 -50 0 c-27 0 -53 3 -57 7 -9 9
-105 15 -134 8 -21 -5 -23 -11 -21 -58 3 -49 2 -52 -21 -52 -23 0 -25 3 -25
52 1 44 -2 53 -20 57 -28 8 -53 7 -58 -1z"/>
<path d="M4630 1330 c-8 -5 -36 -10 -62 -10 l-48 0 1 -37 c2 -86 -7 -82 184
-88 107 -4 172 -10 176 -17 4 -6 10 23 14 65 4 41 4 80 1 86 -9 14 -245 15
-266 1z"/>
<path d="M4911 1296 c0 -22 4 -63 9 -91 5 -38 8 -43 10 -20 2 30 2 30 10 5 l8
-25 1 25 c1 14 4 20 9 14 4 -6 56 -14 121 -17 92 -5 116 -10 126 -24 8 -10 17
-15 21 -10 4 4 2 7 -4 7 -6 0 -9 7 -5 17 4 10 3 14 -5 9 -8 -5 -10 16 -7 74
l3 81 -149 -2 -149 -2 1 -41z"/>
<path d="M3495 1170 c-18 -19 -17 -20 1 -20 13 0 20 7 21 20 1 11 0 20 -1 20
-2 0 -11 -9 -21 -20z"/>
<path d="M3430 1169 c0 -5 9 -9 20 -9 11 0 20 2 20 4 0 2 -9 6 -20 9 -11 3
-20 1 -20 -4z"/>
<path d="M3537 1158 c6 -7 13 -20 16 -28 4 -10 6 -8 6 6 1 12 -6 25 -15 28
-13 5 -14 3 -7 -6z"/>
<path d="M2615 1110 c-3 -5 -1 -10 4 -10 6 0 11 5 11 10 0 6 -2 10 -4 10 -3 0
-8 -4 -11 -10z"/>
<path d="M2515 1039 c-4 -6 -5 -12 -2 -15 2 -3 7 2 10 11 7 17 1 20 -8 4z"/>
<path d="M1910 1073 c0 -15 2 -16 9 -4 8 12 11 9 17 -13 5 -20 9 -24 15 -14
17 26 10 48 -16 48 -17 0 -25 -5 -25 -17z"/>
<path d="M1865 1043 l-28 -38 34 32 c18 18 30 35 27 38 -3 3 -18 -11 -33 -32z"/>
<path d="M1915 1030 c-3 -5 -1 -10 4 -10 6 0 11 5 11 10 0 6 -2 10 -4 10 -3 0
-8 -4 -11 -10z"/>
<path d="M1872 1015 c-7 -8 -9 -15 -4 -15 5 0 15 7 22 15 16 19 -1 19 -18 0z"/>
<path d="M7310 1009 c0 -5 -6 -7 -12 -3 -7 4 -9 3 -5 -1 13 -15 36 -14 30 1
-6 17 -13 18 -13 3z"/>
<path d="M0 1207 l0 -132 398 1 c218 1 400 2 405 3 4 0 7 60 7 131 l0 130
-405 0 -405 0 0 -133z"/>
<path d="M1367 1077 c-3 -21 -2 -48 2 -60 9 -21 9 -21 16 6 4 16 3 43 -2 60
l-9 32 -7 -38z m10 -39 c-3 -8 -6 -5 -6 6 -1 11 2 17 5 13 3 -3 4 -12 1 -19z"/>
</g>
</svg>
