<?xml version="1.0" standalone="no"?>
<!DOCTYPE svg PUBLIC "-//W3C//DTD SVG 20010904//EN"
 "http://www.w3.org/TR/2001/REC-SVG-20010904/DTD/svg10.dtd">
<svg version="1.0" xmlns="http://www.w3.org/2000/svg"
 width="305.000000pt" height="159.000000pt" viewBox="0 0 305.000000 159.000000"
 preserveAspectRatio="xMidYMid meet">

<g transform="translate(0.000000,159.000000) scale(0.100000,-0.100000)"
fill="#000000" stroke="none">
<path d="M71 1402 c-23 -34 -41 -67 -41 -73 0 -7 12 -26 27 -41 26 -27 27 -33
29 -141 1 -98 5 -119 28 -170 l26 -58 -24 -48 c-37 -71 -37 -159 -3 -228 23
-44 25 -57 16 -80 -6 -15 -12 -65 -14 -110 l-4 -81 55 -4 c31 -1 57 -1 59 1 2
1 -1 14 -6 28 -8 21 -4 34 18 72 15 25 32 51 38 56 6 6 32 30 57 54 l46 44 74
-40 c40 -22 83 -46 96 -54 22 -13 25 -12 47 15 22 28 24 29 69 17 32 -8 59 -8
88 -1 74 17 112 12 150 -17 40 -31 55 -85 38 -142 l-9 -31 80 0 79 0 -26 39
c-21 33 -24 46 -19 83 3 23 7 51 9 60 1 10 31 39 66 66 63 47 65 50 114 172
28 68 56 125 62 127 6 2 41 -17 77 -42 36 -25 72 -45 79 -45 7 0 28 9 47 21
l34 20 -5 135 c-3 92 -1 134 6 134 6 0 31 -9 55 -20 55 -25 65 -25 180 5 85
21 110 35 111 58 0 9 -7 9 -114 -3 l-89 -11 -36 29 c-20 16 -82 52 -138 80
-98 50 -107 52 -182 52 -65 0 -94 -6 -158 -31 -45 -17 -106 -33 -143 -36 -57
-5 -78 -13 -172 -69 l-107 -64 -153 -11 c-138 -11 -164 -16 -261 -51 -121 -44
-109 -47 -158 30 -19 30 -21 47 -21 150 1 107 -10 184 -29 205 -4 5 -25 -18
-48 -51z"/>
<path d="M1994 1184 c-38 -20 -92 -49 -120 -64 -34 -18 -60 -26 -78 -23 -22 5
-35 -4 -86 -58 -32 -35 -59 -71 -60 -79 0 -8 -19 -28 -41 -44 -26 -18 -38 -33
-35 -43 3 -8 6 -19 6 -24 0 -5 6 -9 13 -9 7 0 19 -6 25 -12 7 -7 28 -11 47
-10 18 2 44 -3 57 -11 38 -24 117 -29 178 -11 l54 16 31 -35 c16 -19 51 -59
77 -89 40 -46 50 -66 63 -127 21 -102 20 -107 -24 -132 -34 -19 -38 -24 -28
-40 10 -16 25 -19 99 -19 l88 0 62 123 61 124 99 -24 c55 -12 116 -23 137 -23
35 0 38 -3 63 -53 l26 -54 -34 -27 c-29 -23 -32 -30 -24 -46 9 -17 22 -20 95
-20 47 0 85 4 85 9 0 6 18 47 39 93 26 54 55 98 85 126 40 38 47 51 62 119
l17 76 -28 100 c-31 110 -47 133 -156 228 -55 48 -65 52 -152 69 l-92 18 -146
-26 -147 -25 -56 31 c-47 27 -66 32 -124 32 -60 0 -78 -5 -138 -36z"/>
</g>
</svg>
